<svg width="17" height="16" viewBox="0 0 17 16" fill="none" xmlns="http://www.w3.org/2000/svg">
<path d="M0 0.85C0 0.624566 0.0895533 0.408365 0.248959 0.248959C0.408365 0.0895533 0.624566 0 0.85 0H16.15C16.3754 0 16.5916 0.0895533 16.751 0.248959C16.9104 0.408365 17 0.624566 17 0.85C17 1.07543 16.9104 1.29163 16.751 1.45104C16.5916 1.61045 16.3754 1.7 16.15 1.7H0.85C0.624566 1.7 0.408365 1.61045 0.248959 1.45104C0.0895533 1.29163 0 1.07543 0 0.85ZM0.85 8.5H16.15C16.3754 8.5 16.5916 8.41045 16.751 8.25104C16.9104 8.09163 17 7.87543 17 7.65C17 7.42457 16.9104 7.20836 16.751 7.04896C16.5916 6.88955 16.3754 6.8 16.15 6.8H0.85C0.624566 6.8 0.408365 6.88955 0.248959 7.04896C0.0895533 7.20836 0 7.42457 0 7.65C0 7.87543 0.0895533 8.09163 0.248959 8.25104C0.408365 8.41045 0.624566 8.5 0.85 8.5ZM0.85 15.3H8.5C8.72543 15.3 8.94164 15.2104 9.10104 15.051C9.26045 14.8916 9.35 14.6754 9.35 14.45C9.35 14.2246 9.26045 14.0084 9.10104 13.849C8.94164 13.6896 8.72543 13.6 8.5 13.6H0.85C0.624566 13.6 0.408365 13.6896 0.248959 13.849C0.0895533 14.0084 0 14.2246 0 14.45C0 14.6754 0.0895533 14.8916 0.248959 15.051C0.408365 15.2104 0.624566 15.3 0.85 15.3Z" fill="#FF9800"/>
</svg>
