<svg width="18" height="18" viewBox="0 0 18 18" fill="none" xmlns="http://www.w3.org/2000/svg">
<path d="M9 0C7.21997 0 5.47991 0.527841 3.99987 1.51677C2.51983 2.50571 1.36628 3.91131 0.685088 5.55585C0.00389956 7.20038 -0.17433 9.00998 0.172937 10.7558C0.520203 12.5016 1.37737 14.1053 2.63604 15.364C3.89472 16.6226 5.49836 17.4798 7.24419 17.8271C8.99002 18.1743 10.7996 17.9961 12.4442 17.3149C14.0887 16.6337 15.4943 15.4802 16.4832 14.0001C17.4722 12.5201 18 10.78 18 9C18 7.8181 17.7672 6.64778 17.3149 5.55585C16.8626 4.46392 16.1997 3.47177 15.364 2.63604C14.5282 1.80031 13.5361 1.13738 12.4442 0.685084C11.3522 0.232792 10.1819 0 9 0ZM9 4.5C9.53401 4.5 10.056 4.65835 10.5 4.95503C10.9441 5.25171 11.2901 5.67339 11.4945 6.16675C11.6988 6.66011 11.7523 7.20299 11.6481 7.72674C11.5439 8.25049 11.2868 8.73159 10.9092 9.10919C10.5316 9.48679 10.0505 9.74394 9.52675 9.84812C9.003 9.9523 8.46012 9.89883 7.96676 9.69447C7.4734 9.49012 7.05171 9.14405 6.75503 8.70004C6.45836 8.25603 6.3 7.73401 6.3 7.2C6.3 6.48391 6.58447 5.79716 7.09081 5.29081C7.59716 4.78446 8.28392 4.5 9 4.5ZM9 16.2C7.24994 16.2001 5.56032 15.5599 4.2498 14.4C5.56114 13.2418 7.25043 12.6026 9 12.6026C10.7496 12.6026 12.4389 13.2418 13.7502 14.4C12.4397 15.5599 10.7501 16.2001 9 16.2Z" fill="#FF9800"/>
</svg>
