<svg width="16" height="16" viewBox="0 0 16 16" fill="none" xmlns="http://www.w3.org/2000/svg">
<path d="M8 0C6.41775 0 4.87103 0.469192 3.55544 1.34824C2.23985 2.22729 1.21447 3.47672 0.608967 4.93853C0.00346627 6.40034 -0.15496 8.00887 0.153721 9.56072C0.462403 11.1126 1.22433 12.538 2.34315 13.6569C3.46197 14.7757 4.88743 15.5376 6.43928 15.8463C7.99113 16.155 9.59966 15.9965 11.0615 15.391C12.5233 14.7855 13.7727 13.7602 14.6518 12.4446C15.5308 11.129 16 9.58225 16 8C16 6.94942 15.7931 5.90914 15.391 4.93853C14.989 3.96793 14.3997 3.08601 13.6569 2.34315C12.914 1.60028 12.0321 1.011 11.0615 0.608964C10.0909 0.206926 9.05058 0 8 0ZM8 4C8.47468 4 8.93869 4.14076 9.33337 4.40447C9.72805 4.66819 10.0357 5.04302 10.2173 5.48156C10.399 5.9201 10.4465 6.40266 10.3539 6.86822C10.2613 7.33377 10.0327 7.76141 9.69706 8.09706C9.36141 8.4327 8.93377 8.66128 8.46822 8.75388C8.00266 8.84649 7.5201 8.79896 7.08156 8.61731C6.64302 8.43566 6.26819 8.12805 6.00448 7.73337C5.74076 7.33869 5.6 6.87467 5.6 6.4C5.6 5.76348 5.85286 5.15303 6.30295 4.70294C6.75303 4.25286 7.36348 4 8 4ZM8 14.4C6.44439 14.4001 4.9425 13.831 3.7776 12.8C4.94323 11.7705 6.44483 11.2023 8 11.2023C9.55518 11.2023 11.0568 11.7705 12.2224 12.8C11.0575 13.831 9.55561 14.4001 8 14.4Z" fill="white"/>
</svg>
