<svg width="16" height="13" viewBox="0 0 16 13" fill="none" xmlns="http://www.w3.org/2000/svg">
<path d="M13.538 1.08038C12.5247 0.576761 11.4275 0.211232 10.2846 3.73637e-05C10.2746 -0.000304287 10.2646 0.00170051 10.2554 0.00591082C10.2462 0.0101211 10.2379 0.0164347 10.2313 0.0244062C10.0941 0.292461 9.93411 0.641744 9.82744 0.909799C8.61522 0.71485 7.38242 0.71485 6.1702 0.909799C6.06353 0.633621 5.90353 0.292461 5.75876 0.0244062C5.75114 0.00816041 5.72828 3.73637e-05 5.70542 3.73637e-05C4.56254 0.211232 3.47298 0.576761 2.452 1.08038C2.44438 1.08038 2.43676 1.0885 2.42914 1.09663C0.356706 4.40263 -0.214738 7.61929 0.0671745 10.8035C0.0671745 10.8197 0.0747937 10.836 0.0900322 10.8441C1.4615 11.9163 2.77963 12.5661 4.08252 12.9966C4.10538 13.0048 4.12824 12.9966 4.13586 12.9804C4.44063 12.5336 4.71492 12.0625 4.95112 11.567C4.96636 11.5345 4.95112 11.502 4.92064 11.4939C4.48634 11.3152 4.0749 11.104 3.67108 10.8603C3.64061 10.8441 3.64061 10.7953 3.66346 10.771C3.74728 10.706 3.83109 10.6329 3.9149 10.5679C3.93014 10.5517 3.953 10.5517 3.96823 10.5598C6.58926 11.8351 9.416 11.8351 12.0065 10.5598C12.0218 10.5517 12.0446 10.5517 12.0599 10.5679C12.1437 10.641 12.2275 10.706 12.3113 10.7791C12.3418 10.8035 12.3418 10.8522 12.3037 10.8684C11.9075 11.1202 11.4884 11.3233 11.0541 11.502C11.0237 11.5101 11.016 11.5508 11.0237 11.5751C11.2675 12.0706 11.5418 12.5418 11.8389 12.9885C11.8618 12.9966 11.8846 13.0048 11.9075 12.9966C13.218 12.5661 14.5361 11.9163 15.9076 10.8441C15.9228 10.836 15.9305 10.8197 15.9305 10.8035C16.2657 7.1238 15.3743 3.93151 13.5685 1.09663C13.5609 1.0885 13.5533 1.08038 13.538 1.08038ZM5.34732 8.86209C4.56254 8.86209 3.90728 8.09042 3.90728 7.14004C3.90728 6.18967 4.5473 5.41799 5.34732 5.41799C6.15496 5.41799 6.79498 6.19779 6.78736 7.14004C6.78736 8.09042 6.14734 8.86209 5.34732 8.86209ZM10.6579 8.86209C9.87316 8.86209 9.2179 8.09042 9.2179 7.14004C9.2179 6.18967 9.85792 5.41799 10.6579 5.41799C11.4656 5.41799 12.1056 6.19779 12.098 7.14004C12.098 8.09042 11.4656 8.86209 10.6579 8.86209Z" fill="white"/>
</svg>
