<svg width="50" height="50" viewBox="0 0 50 50" fill="none" xmlns="http://www.w3.org/2000/svg">
<rect width="50" height="50" rx="10" fill="#D9D9D9"/>
<path d="M16.9253 23.8999C11.0753 24.3124 11.0753 32.8249 16.9253 33.2374H19.3254" stroke="#FF9800" stroke-width="1.5" stroke-miterlimit="10" stroke-linecap="round" stroke-linejoin="round"/>
<path d="M16.9875 23.8998C12.975 12.7373 29.9 8.27482 31.8375 19.9998C37.25 20.6873 39.4375 27.8998 35.3375 31.4873C34.0875 32.6248 32.475 33.2498 30.7875 33.2373H30.675" stroke="#FF9800" stroke-width="1.5" stroke-miterlimit="10" stroke-linecap="round" stroke-linejoin="round"/>
<path d="M31.25 30.6626C31.25 31.5876 31.05 32.4626 30.675 33.2376C30.575 33.4626 30.4625 33.6751 30.3375 33.8751C29.2625 35.6876 27.275 36.9126 25 36.9126C22.725 36.9126 20.7375 35.6876 19.6625 33.8751C19.5375 33.6751 19.425 33.4626 19.325 33.2376C18.95 32.4626 18.75 31.5876 18.75 30.6626C18.75 27.2126 21.55 24.4126 25 24.4126C28.45 24.4126 31.25 27.2126 31.25 30.6626Z" stroke="#FF9800" stroke-width="1.5" stroke-miterlimit="10" stroke-linecap="round" stroke-linejoin="round"/>
<path d="M23.0505 30.6625L24.288 31.9L26.9505 29.4375" stroke="#FF9800" stroke-width="1.5" stroke-linecap="round" stroke-linejoin="round"/>
</svg>
