<svg width="50" height="50" viewBox="0 0 50 50" fill="none" xmlns="http://www.w3.org/2000/svg">
<rect width="50" height="50" rx="10" fill="#D9D9D9"/>
<path d="M32.5 33.5749H31.55C30.55 33.5749 29.6 33.9624 28.9 34.6624L26.7625 36.775C25.7875 37.7375 24.2 37.7375 23.225 36.775L21.0875 34.6624C20.3875 33.9624 19.425 33.5749 18.4375 33.5749H17.5C15.425 33.5749 13.75 31.9125 13.75 29.8625V16.2249C13.75 14.1749 15.425 12.5125 17.5 12.5125H32.5C34.575 12.5125 36.25 14.1749 36.25 16.2249V29.8625C36.25 31.9 34.575 33.5749 32.5 33.5749Z" stroke="#FF9800" stroke-width="1.5" stroke-miterlimit="10" stroke-linecap="round" stroke-linejoin="round"/>
<path d="M18.75 21.45C18.75 20.2875 19.7 19.3374 20.8625 19.3374C22.025 19.3374 22.975 20.2875 22.975 21.45C22.975 23.8 19.6375 24.05 18.9 26.2875C18.75 26.75 19.1375 27.2125 19.625 27.2125H22.975" stroke="#FF9800" stroke-width="1.5" stroke-linecap="round" stroke-linejoin="round"/>
<path d="M30.0499 27.2V20.0625C30.0499 19.7375 29.8374 19.4499 29.5249 19.3624C29.2124 19.2749 28.875 19.3999 28.7 19.6749C27.8 21.1249 26.825 22.775 25.975 24.225C25.8375 24.4625 25.8375 24.775 25.975 25.0125C26.1125 25.25 26.375 25.3999 26.6625 25.3999H31.25" stroke="#FF9800" stroke-width="1.5" stroke-linecap="round" stroke-linejoin="round"/>
</svg>
